<svg width="43" height="43" viewBox="0 0 43 43" fill="none" xmlns="http://www.w3.org/2000/svg">
  <g clip-path="url(#clip0_1_91)">
    <path d="M22.8886 22.353L18.3804 29.3222L14.0784 31.1631C11.5437 28.2592 8.83678 24.814 7.55701 20.4581L10.1328 15.6675L14.2754 13.7397C14.2016 14.1827 14.1523 14.6257 14.1523 15.0933C14.1523 19.1537 17.4745 22.4761 21.5351 22.4761C22.0027 22.4761 22.4457 22.4268 22.8886 22.353Z" fill="#FFDA2D" />
    <path d="M28.7957 16.4394C28.8696 15.9989 28.918 15.5584 28.918 15.0933C28.918 11.036 25.6006 7.71537 21.5442 7.71045H21.5352C21.0676 7.71045 20.6246 7.75967 20.1816 7.83349L26.7277 1.2874C30.6898 2.76396 33.8645 5.93857 35.341 9.90068L28.7949 16.4468C28.7949 16.4443 28.7957 16.4419 28.7957 16.4394Z" fill="#80AEF8" />
    <path d="M35.341 9.90068L33.1015 14.2729L28.7949 16.4468C28.7949 16.4443 28.7957 16.4419 28.7957 16.4394C28.8696 15.9989 28.9179 15.5584 28.9179 15.0933C28.9179 11.036 25.6006 7.71537 21.5442 7.71045H21.5376V6.47752L23.0117 3.19873L26.7277 1.2874C30.6898 2.76396 33.8644 5.93857 35.341 9.90068Z" fill="#4086F4" />
    <path d="M35.341 9.90068L28.7949 16.4467C28.2288 19.4245 25.8664 21.7869 22.8886 22.353H22.8885L15.7623 29.4792L14.0784 31.163C14.4968 31.6306 14.8659 32.0491 15.2597 32.492C17.9668 35.5683 20.3047 38.3901 20.3047 41.0972C20.3047 41.7861 20.846 42.3276 21.5352 42.3276C22.2243 42.3276 22.7656 41.7861 22.7656 41.0972C22.7656 38.3901 25.1035 35.5683 27.8106 32.4921C31.6005 28.2346 36.3008 22.919 36.3008 15.0933C36.3008 13.2722 35.9809 11.5249 35.341 9.90068Z" fill="#59C36A" />
    <path d="M35.341 9.90068L28.795 16.4466C28.2289 19.4244 25.8665 21.7869 22.8887 22.353C22.8886 22.353 22.8886 22.353 22.8885 22.353L21.5377 23.7038V42.3271C22.2256 42.3257 22.7656 41.7852 22.7656 41.0972C22.7656 38.3901 25.1035 35.5683 27.8106 32.4921C31.6005 28.2346 36.3008 22.919 36.3008 15.0933C36.3008 13.2722 35.9809 11.5249 35.341 9.90068Z" fill="#00A66C" />
    <path d="M21.5377 23.704L22.8887 22.353C22.4466 22.4266 22.0045 22.4754 21.5377 22.4757V23.704Z" fill="#FDBF00" />
    <path d="M26.7277 1.2874L20.1816 7.8335C18.6805 8.12881 17.3515 8.8424 16.318 9.87616L12.5117 8.28467L11.1008 4.65889C13.7587 1.97638 17.4501 0.327637 21.5351 0.327637C23.3562 0.327637 25.1035 0.647559 26.7277 1.2874Z" fill="#4086F4" />
    <path d="M21.5377 6.47744L26.7278 1.2874C25.1044 0.647803 23.3579 0.328209 21.5378 0.327881V6.47744H21.5377Z" fill="#4175DF" />
    <path d="M16.318 9.87608C15.2845 10.9097 14.5706 12.2385 14.2754 13.7397L7.55703 20.4581C7.06484 18.8094 6.76953 17.0374 6.76953 15.0933C6.76953 11.008 8.41828 7.31662 11.1008 4.65889L16.318 9.87608Z" fill="#F03800" />
  </g>
  <defs>
    <clipPath id="clip0_1_91">
      <rect width="42" height="42" fill="white" transform="translate(0.535156 0.327637)" />
    </clipPath>
  </defs>
</svg>
